<svg id="Capa_1" data-name="Capa 1" xmlns="http://www.w3.org/2000/svg" viewBox="0 0 399.73 306.11"><title>acc-compara</title><path d="M353.09,237.74H338.58a3,3,0,0,1,0-6h14.51c7.43,0,9.35-3,10.46-9l3.2-20.52a3.13,3.13,0,0,1,.07-.33,8.29,8.29,0,0,0-.87-5.93c-1.17-1.75-3.37-2.88-6.54-3.35l-39.26-4.78a3,3,0,0,1-1.57-.68l-36.36-30.58c-2.31-2-3.7-3.24-7.25-3.24H205.82a3,3,0,0,1,0-6H275c5.8,0,8.67,2.51,11.2,4.72l.63.55,35,29.38,38.45,4.69c5,.74,8.64,2.77,10.78,6,2.87,4.4,1.91,9.47,1.66,10.56l-3.2,20.48C368.24,230.29,365.3,237.74,353.09,237.74Z" style="fill:#fff"/><path d="M317.86,257.9A23.17,23.17,0,1,1,341,234.74,23.19,23.19,0,0,1,317.86,257.9Zm0-40.33A17.17,17.17,0,1,0,335,234.74,17.18,17.18,0,0,0,317.86,217.57Z" style="fill:#fff"/><path d="M291,217.14H230.27a3,3,0,0,1,0-6H291a3,3,0,0,1,0,6Z" style="fill:#fff"/><path d="M283,237.92H230.27a3,3,0,0,1,0-6H283a3,3,0,0,1,0,6Z" style="fill:#fff"/><path d="M291,257.9H230.27a3,3,0,0,1,0-6H291a3,3,0,1,1,0,6Z" style="fill:#fff"/><circle cx="216.82" cy="214.14" r="4.23" style="fill:#fff"/><circle cx="216.82" cy="234.74" r="4.23" style="fill:#fff"/><circle cx="216.82" cy="254.9" r="4.23" style="fill:#fff"/><path d="M180.35,132.89H165.84a3,3,0,0,1,0-6h14.51c7.43,0,9.35-3,10.46-9L194,97.34a3.14,3.14,0,0,1,.07-.33,8.29,8.29,0,0,0-.86-5.93c-1.17-1.75-3.37-2.88-6.54-3.35l-39.25-4.78a3,3,0,0,1-1.57-.68L109.5,51.69c-2.31-2-3.7-3.24-7.25-3.24H33.08a3,3,0,0,1,0-6h69.17c5.8,0,8.67,2.51,11.2,4.72l.63.55L149,77.1l38.44,4.69c5,.74,8.65,2.77,10.79,6.05,2.87,4.4,1.91,9.47,1.66,10.56l-3.2,20.48C195.5,125.45,192.55,132.89,180.35,132.89Z" style="fill:#fff"/><path d="M145.12,153.06a23.17,23.17,0,1,1,23.17-23.17A23.19,23.19,0,0,1,145.12,153.06Zm0-40.33a17.17,17.17,0,1,0,17.17,17.17A17.19,17.19,0,0,0,145.12,112.73Z" style="fill:#fff"/><path d="M118.26,112.29H57.52a3,3,0,0,1,0-6h60.74a3,3,0,0,1,0,6Z" style="fill:#fff"/><path d="M110.26,133.08H57.52a3,3,0,1,1,0-6h52.74a3,3,0,0,1,0,6Z" style="fill:#fff"/><path d="M118.26,153.06H57.52a3,3,0,0,1,0-6h60.74a3,3,0,0,1,0,6Z" style="fill:#fff"/><circle cx="44.08" cy="109.29" r="4.23" style="fill:#fff"/><circle cx="44.08" cy="129.89" r="4.23" style="fill:#fff"/><circle cx="44.08" cy="150.06" r="4.23" style="fill:#fff"/></svg>