<svg id="Capa_1" data-name="Capa 1" xmlns="http://www.w3.org/2000/svg" viewBox="0 0 94 94"><title>no-image</title><path d="M65.46,24.39h-33c-1.65,0-2-1.33-1-4h0a4,4,0,0,1,4-4h30c1.65,0,3,1.8,3,4h0C68.46,22.59,67.11,24.39,65.46,24.39Z" style="fill:#afd8ff"/><path d="M80.29,74.39H76.46a10,10,0,0,1-10-10v-21a10,10,0,0,1,10-10h0a10,10,0,0,1,10,10V68.22A6.18,6.18,0,0,1,80.29,74.39Z" style="fill:#b1ffc1"/><path d="M81.45,82.39H12.55A12.31,12.31,0,0,1,.28,70.07V37.27A12.31,12.31,0,0,1,12.55,24.95H15c5.09,0,9-2.62,9.26-5,.59-4.69,6.34-8.37,13.09-8.37H55.61c6.72,0,12.56,3.65,13.29,8.31.37,2.38,4.36,5,9.47,5h3.07A12.3,12.3,0,0,1,93.72,37.27V70.07A12.3,12.3,0,0,1,81.45,82.39ZM12.55,28.83a8.43,8.43,0,0,0-8.4,8.44V70.07a8.43,8.43,0,0,0,8.4,8.43h68.9a8.43,8.43,0,0,0,8.4-8.43V37.27a8.43,8.43,0,0,0-8.4-8.44H78.38c-6.72,0-12.56-3.65-13.29-8.31-.37-2.38-4.36-5-9.47-5H37.35c-5.09,0-9,2.62-9.26,5-.59,4.69-6.34,8.37-13.09,8.37Z" style="fill:#bebebf;stroke:#fff;stroke-miterlimit:10;stroke-width:2px"/><path d="M47,72.81A21.93,21.93,0,1,1,68.85,50.88,21.92,21.92,0,0,1,47,72.81Zm0-40A18.06,18.06,0,1,0,65,50.88,18,18,0,0,0,47,32.83Z" style="fill:#bebebf;stroke:#fff;stroke-miterlimit:10;stroke-width:2px"/><ellipse cx="47" cy="50.88" rx="13.84" ry="13.9" style="fill:#bebebf;stroke:#fff;stroke-miterlimit:10;stroke-width:2px"/><ellipse cx="42.85" cy="46.72" rx="4.15" ry="4.16" style="fill:#fff"/></svg>